REM DIRINDEX 1\2,1\3,1\4,1\5,1\6
REM DIRNAME folder01,folder02,folder03,folder04,folder05,folder06
TITLE ""
FILE "CD2-18.mp3" MP3
  TRACK 01 AUDIO
    TITLE "6:cjc091_1816"
    INDEX 01 00:00:00
  TRACK 02 AUDIO
    TITLE "0:"
    INDEX 01 00:02:04
  TRACK 03 AUDIO
    TITLE "2:cjc091_1817"
    INDEX 01 00:03:31
  TRACK 04 AUDIO
    TITLE "0:"
    INDEX 01 00:05:10
  TRACK 05 AUDIO
    TITLE "3:cjc091_1818"
    INDEX 01 00:05:14
  TRACK 06 AUDIO
    TITLE "0:"
    INDEX 01 00:06:55
  TRACK 07 AUDIO
    TITLE "4:cjc091_1819"
    INDEX 01 00:06:73
  TRACK 08 AUDIO
    TITLE "0:"
    INDEX 01 00:11:46
  TRACK 09 AUDIO
    TITLE "2:cjc091_1820"
    INDEX 01 00:12:61
  TRACK 10 AUDIO
    TITLE "0:"
    INDEX 01 00:14:21
  TRACK 11 AUDIO
    TITLE "3:cjc091_1821"
    INDEX 01 00:14:35
  TRACK 12 AUDIO
    TITLE "0:"
    INDEX 01 00:16:28
  TRACK 13 AUDIO
    TITLE "4:cjc091_1822"
    INDEX 01 00:16:49
  TRACK 14 AUDIO
    TITLE "0:"
    INDEX 01 00:20:47
  TRACK 15 AUDIO
    TITLE "2:cjc091_1823"
    INDEX 01 00:21:57
  TRACK 16 AUDIO
    TITLE "0:"
    INDEX 01 00:23:53
  TRACK 17 AUDIO
    TITLE "3:cjc091_1824"
    INDEX 01 00:23:55
  TRACK 18 AUDIO
    TITLE "0:"
    INDEX 01 00:25:29
  TRACK 19 AUDIO
    TITLE "4:cjc091_1825"
    INDEX 01 00:25:50
  TRACK 20 AUDIO
    TITLE "0:"
    INDEX 01 00:28:23
  TRACK 21 AUDIO
    TITLE "2:cjc091_1826"
    INDEX 01 00:29:34
  TRACK 22 AUDIO
    TITLE "0:"
    INDEX 01 00:31:04
  TRACK 23 AUDIO
    TITLE "3:cjc091_1827"
    INDEX 01 00:31:16
  TRACK 24 AUDIO
    TITLE "0:"
    INDEX 01 00:32:39
  TRACK 25 AUDIO
    TITLE "4:cjc091_1828"
    INDEX 01 00:32:54
  TRACK 26 AUDIO
    TITLE "0:"
    INDEX 01 00:36:13
  TRACK 27 AUDIO
    TITLE "2:cjc091_1829"
    INDEX 01 00:37:18
  TRACK 28 AUDIO
    TITLE "0:"
    INDEX 01 00:39:05
  TRACK 29 AUDIO
    TITLE "3:cjc091_1830"
    INDEX 01 00:39:15
  TRACK 30 AUDIO
    TITLE "0:"
    INDEX 01 00:40:58
  TRACK 31 AUDIO
    TITLE "4:cjc091_1831"
    INDEX 01 00:41:00
  TRACK 32 AUDIO
    TITLE "0:"
    INDEX 01 00:45:14
  TRACK 33 AUDIO
    TITLE "2:cjc091_1832"
    INDEX 01 00:46:23
  TRACK 34 AUDIO
    TITLE "0:"
    INDEX 01 00:47:34
  TRACK 35 AUDIO
    TITLE "3:cjc091_1833"
    INDEX 01 00:47:50
  TRACK 36 AUDIO
    TITLE "0:"
    INDEX 01 00:49:39
  TRACK 37 AUDIO
    TITLE "4:cjc091_1834"
    INDEX 01 00:49:63
  TRACK 38 AUDIO
    TITLE "0:"
    INDEX 01 00:54:03
  TRACK 39 AUDIO
    TITLE "2:cjc091_1835"
    INDEX 01 00:55:10
  TRACK 40 AUDIO
    TITLE "0:"
    INDEX 01 00:56:10
  TRACK 41 AUDIO
    TITLE "3:cjc091_1836"
    INDEX 01 00:56:24
  TRACK 42 AUDIO
    TITLE "0:"
    INDEX 01 00:57:46
  TRACK 43 AUDIO
    TITLE "4:cjc091_1837"
    INDEX 01 00:57:62
  TRACK 44 AUDIO
    TITLE "0:"
    INDEX 01 01:00:47
  TRACK 45 AUDIO
    TITLE "2:cjc091_1838"
    INDEX 01 01:01:60
  TRACK 46 AUDIO
    TITLE "0:"
    INDEX 01 01:03:02
  TRACK 47 AUDIO
    TITLE "3:cjc091_1839"
    INDEX 01 01:03:16
  TRACK 48 AUDIO
    TITLE "0:"
    INDEX 01 01:05:01
  TRACK 49 AUDIO
    TITLE "4:cjc091_1840"
    INDEX 01 01:05:22
  TRACK 50 AUDIO
    TITLE "0:"
    INDEX 01 01:08:40
  TRACK 51 AUDIO
    TITLE "2:cjc091_1841"
    INDEX 01 01:09:54
  TRACK 52 AUDIO
    TITLE "0:"
    INDEX 01 01:11:09
  TRACK 53 AUDIO
    TITLE "3:cjc091_1842"
    INDEX 01 01:11:17
  TRACK 54 AUDIO
    TITLE "0:"
    INDEX 01 01:13:02
  TRACK 55 AUDIO
    TITLE "4:cjc091_1843"
    INDEX 01 01:13:22
  TRACK 56 AUDIO
    TITLE "0:"
    INDEX 01 01:17:02
  TRACK 57 AUDIO
    TITLE "2:cjc091_1844"
    INDEX 01 01:18:13
  TRACK 58 AUDIO
    TITLE "0:"
    INDEX 01 01:19:34
  TRACK 59 AUDIO
    TITLE "3:cjc091_1845"
    INDEX 01 01:19:38
  TRACK 60 AUDIO
    TITLE "0:"
    INDEX 01 01:20:59
  TRACK 61 AUDIO
    TITLE "4:cjc091_1846"
    INDEX 01 01:21:06
  TRACK 62 AUDIO
    TITLE "0:"
    INDEX 01 01:24:10
  TRACK 63 AUDIO
    TITLE "2:cjc091_1847"
    INDEX 01 01:25:23
  TRACK 64 AUDIO
    TITLE "0:"
    INDEX 01 01:26:52
  TRACK 65 AUDIO
    TITLE "3:cjc091_1848"
    INDEX 01 01:26:62
  TRACK 66 AUDIO
    TITLE "0:"
    INDEX 01 01:28:57
  TRACK 67 AUDIO
    TITLE "4:cjc091_1849"
    INDEX 01 01:29:07
  TRACK 68 AUDIO
    TITLE "0:"
    INDEX 01 01:34:69
  TRACK 69 AUDIO
    TITLE "2:cjc091_1850"
    INDEX 01 01:36:05
  TRACK 70 AUDIO
    TITLE "0:"
    INDEX 01 01:38:32
  TRACK 71 AUDIO
    TITLE "3:cjc091_1851"
    INDEX 01 01:38:51
  TRACK 72 AUDIO
    TITLE "0:"
    INDEX 01 01:40:64
  TRACK 73 AUDIO
    TITLE "4:cjc091_1852"
    INDEX 01 01:41:10
  TRACK 74 AUDIO
    TITLE "0:"
    INDEX 01 01:44:03
  TRACK 75 AUDIO
    TITLE "2:cjc091_1853"
    INDEX 01 01:45:22
  TRACK 76 AUDIO
    TITLE "0:"
    INDEX 01 01:46:57
  TRACK 77 AUDIO
    TITLE "3:cjc091_1854"
    INDEX 01 01:46:65
  TRACK 78 AUDIO
    TITLE "0:"
    INDEX 01 01:48:28
  TRACK 79 AUDIO
    TITLE "4:cjc091_1855"
    INDEX 01 01:48:56
  TRACK 80 AUDIO
    TITLE "0:"
    INDEX 01 01:52:46
  TRACK 81 AUDIO
    TITLE "2:cjc091_1856"
    INDEX 01 01:53:57
  TRACK 82 AUDIO
    TITLE "0:"
    INDEX 01 01:55:32
  TRACK 83 AUDIO
    TITLE "3:cjc091_1857"
    INDEX 01 01:55:38
  TRACK 84 AUDIO
    TITLE "0:"
    INDEX 01 01:57:00
  TRACK 85 AUDIO
    TITLE "4:cjc091_1858"
    INDEX 01 01:57:21
  TRACK 86 AUDIO
    TITLE "0:"
    INDEX 01 02:01:45
  TRACK 87 AUDIO
    TITLE "2:cjc091_1859"
    INDEX 01 02:02:56
  TRACK 88 AUDIO
    TITLE "0:"
    INDEX 01 02:04:19
  TRACK 89 AUDIO
    TITLE "3:cjc091_1860"
    INDEX 01 02:04:27
  TRACK 90 AUDIO
    TITLE "0:"
    INDEX 01 02:05:74
  TRACK 91 AUDIO
    TITLE "4:cjc091_1861"
    INDEX 01 02:06:18
  TRACK 92 AUDIO
    TITLE "0:"
    INDEX 01 02:10:26
